{
  "source": "C:\\Users\\Peter\\Desktop\\stuff\\MIUN\\quantitative_research\\video_compression\\videos\\BVI-HD\\BVI-HD_CDVL_videos\\ORIG\\PlasmaAveragePan_1920x1080_60fps.mp4",
  "output": "C:\\Users\\Peter\\Desktop\\stuff\\MIUN\\quantitative_research\\video_compression\\compressed_videos\\BVI-HD\\vp9\\8\\PlasmaAveragePan_1920x1080_60fps_vp9.webm",
  "codec": "vp9",
  "ok": "Input #0, mov,mp4,m4a,3gp,3g2,mj2, from 'C:\\Users\\Peter\\Desktop\\stuff\\MIUN\\quantitative_research\\video_compression\\videos\\BVI-HD\\BVI-HD_CDVL_videos\\ORIG\\PlasmaAveragePan_1920x1080_60fps.mp4':\n  Metadata:\n    major_brand     : isom\n    minor_version   : 512\n    compatible_brands: isomiso2avc1mp41\n    encoder         : Lavf54.28.101\n  Duration: 00:00:05.00, start: 0.000000, bitrate: 73730 kb/s\n  Stream #0:0[0x1](und): Video: h264 (High 4:4:4 Predictive) (avc1 / 0x31637661), yuv420p(progressive), 1920x1080, 73727 kb/s, 60 fps, 60 tbr, 60 tbn (default)\n    Metadata:\n      handler_name    : VideoHandler\n      vendor_id       : [0][0][0][0]\n[out#0/webm @ 000001f151b30840] Codec AVOption b:a (set bitrate (in bits/s)) has not been used for any stream. The most likely reason is either wrong type (e.g. a video option with no video streams) or that it is a private option of some decoder which was not actually used for any stream.\nStream mapping:\n  Stream #0:0 -> #0:0 (h264 (native) -> vp9 (libvpx-vp9))\nPress [q] to stop, [?] for help\n[libvpx-vp9 @ 000001f152292240] v1.15.2-100-g40561f514\nOutput #0, webm, to 'C:\\Users\\Peter\\Desktop\\stuff\\MIUN\\quantitative_research\\video_compression\\compressed_videos\\BVI-HD\\vp9\\8\\PlasmaAveragePan_1920x1080_60fps_vp9.webm':\n  Metadata:\n    major_brand     : isom\n    minor_version   : 512\n    compatible_brands: isomiso2avc1mp41\n    encoder         : Lavf62.3.100\n  Stream #0:0(und): Video: vp9, yuv420p(tv, progressive), 1920x1080, q=2-31, 8000 kb/s, 60 fps, 1k tbn (default)\n    Metadata:\n      encoder         : Lavc62.11.100 libvpx-vp9\n      handler_name    : VideoHandler\n      vendor_id       : [0][0][0][0]\n    Side data:\n      cpb: bitrate max/min/avg: 0/0/0 buffer size: 8000000 vbv_delay: N/A\nframe=    2 fps=0.0 q=23.0 size=       1KiB time=00:00:00.03 bitrate= 151.9kbits/s speed=0.0645x elapsed=0:00:00.51    \nframe=    8 fps=7.6 q=35.0 size=       1KiB time=00:00:00.13 bitrate=  38.0kbits/s speed=0.126x elapsed=0:00:01.05    \nframe=   16 fps= 10 q=30.0 size=       1KiB time=00:00:00.26 bitrate=  19.0kbits/s speed=0.169x elapsed=0:00:01.57    \nframe=   22 fps= 10 q=30.0 size=       1KiB time=00:00:00.36 bitrate=  13.8kbits/s speed=0.173x elapsed=0:00:02.11    \nframe=   29 fps= 11 q=30.0 size=       1KiB time=00:00:00.48 bitrate=  10.5kbits/s speed=0.182x elapsed=0:00:02.65    \nframe=   34 fps= 11 q=30.0 size=       1KiB time=00:00:00.56 bitrate=   8.9kbits/s speed=0.177x elapsed=0:00:03.20    \nframe=   40 fps= 11 q=32.0 size=       1KiB time=00:00:00.66 bitrate=   7.6kbits/s speed=0.179x elapsed=0:00:03.72    \nframe=   45 fps= 11 q=32.0 size=       1KiB time=00:00:00.75 bitrate=   6.8kbits/s speed=0.176x elapsed=0:00:04.26    \nframe=   51 fps= 11 q=32.0 size=       1KiB time=00:00:00.85 bitrate=   6.0kbits/s speed=0.177x elapsed=0:00:04.78    \nframe=   58 fps= 11 q=32.0 size=       1KiB time=00:00:00.96 bitrate=   5.2kbits/s speed=0.182x elapsed=0:00:05.30    \nframe=   65 fps= 11 q=32.0 size=       1KiB time=00:00:01.08 bitrate=   4.7kbits/s speed=0.186x elapsed=0:00:05.83    \nframe=   70 fps= 11 q=32.0 size=       1KiB time=00:00:01.16 bitrate=   4.3kbits/s speed=0.184x elapsed=0:00:06.35    \nframe=   76 fps= 11 q=34.0 size=       1KiB time=00:00:01.26 bitrate=   4.0kbits/s speed=0.184x elapsed=0:00:06.87    \nframe=   83 fps= 11 q=35.0 size=       1KiB time=00:00:01.38 bitrate=   3.7kbits/s speed=0.187x elapsed=0:00:07.39    \nframe=   90 fps= 11 q=32.0 size=       1KiB time=00:00:01.50 bitrate=   3.4kbits/s speed=0.189x elapsed=0:00:07.92    \nframe=   96 fps= 11 q=31.0 size=       1KiB time=00:00:01.60 bitrate=   3.2kbits/s speed=0.189x elapsed=0:00:08.45    \nframe=  102 fps= 11 q=31.0 size=       1KiB time=00:00:01.70 bitrate=   3.0kbits/s speed=0.189x elapsed=0:00:08.98    \nframe=  108 fps= 11 q=31.0 size=       1KiB time=00:00:01.80 bitrate=   2.8kbits/s speed=0.189x elapsed=0:00:09.51    \nframe=  114 fps= 11 q=33.0 size=       1KiB time=00:00:01.90 bitrate=   2.7kbits/s speed=0.188x elapsed=0:00:10.13    \nframe=  120 fps= 11 q=33.0 size=       1KiB time=00:00:02.00 bitrate=   2.5kbits/s speed=0.187x elapsed=0:00:10.67    \nframe=  126 fps= 11 q=34.0 size=       1KiB time=00:00:02.10 bitrate=   2.4kbits/s speed=0.187x elapsed=0:00:11.21    \nframe=  132 fps= 11 q=34.0 size=    1280KiB time=00:00:02.20 bitrate=4766.3kbits/s speed=0.187x elapsed=0:00:11.73    \nframe=  139 fps= 11 q=34.0 size=    1280KiB time=00:00:02.31 bitrate=4526.2kbits/s speed=0.189x elapsed=0:00:12.26    \nframe=  144 fps= 11 q=33.0 size=    1280KiB time=00:00:02.40 bitrate=4369.1kbits/s speed=0.188x elapsed=0:00:12.78    \nframe=  150 fps= 11 q=33.0 size=    1280KiB time=00:00:02.50 bitrate=4194.3kbits/s speed=0.188x elapsed=0:00:13.31    \nframe=  155 fps= 11 q=33.0 size=    1280KiB time=00:00:02.58 bitrate=4059.0kbits/s speed=0.187x elapsed=0:00:13.84    \nframe=  161 fps= 11 q=35.0 size=    1280KiB time=00:00:02.68 bitrate=3907.7kbits/s speed=0.187x elapsed=0:00:14.34    \nframe=  167 fps= 11 q=35.0 size=    1280KiB time=00:00:02.78 bitrate=3767.3kbits/s speed=0.187x elapsed=0:00:14.87    \nframe=  174 fps= 11 q=33.0 size=    1280KiB time=00:00:02.90 bitrate=3615.8kbits/s speed=0.188x elapsed=0:00:15.38    \nframe=  180 fps= 11 q=32.0 size=    1280KiB time=00:00:03.00 bitrate=3495.3kbits/s speed=0.188x elapsed=0:00:15.91    \nframe=  186 fps= 11 q=32.0 size=    1280KiB time=00:00:03.10 bitrate=3382.5kbits/s speed=0.188x elapsed=0:00:16.46    \nframe=  191 fps= 11 q=32.0 size=    1280KiB time=00:00:03.18 bitrate=3294.0kbits/s speed=0.187x elapsed=0:00:17.01    \nframe=  197 fps= 11 q=32.0 size=    1280KiB time=00:00:03.28 bitrate=3193.6kbits/s speed=0.187x elapsed=0:00:17.53    \nframe=  204 fps= 11 q=32.0 size=    1280KiB time=00:00:03.40 bitrate=3084.0kbits/s speed=0.188x elapsed=0:00:18.04    \nframe=  210 fps= 11 q=32.0 size=    1280KiB time=00:00:03.50 bitrate=2995.9kbits/s speed=0.188x elapsed=0:00:18.58    \nframe=  215 fps= 11 q=32.0 size=    1280KiB time=00:00:03.56 bitrate=2939.9kbits/s speed=0.187x elapsed=0:00:19.10    \nframe=  220 fps= 11 q=31.0 size=    1280KiB time=00:00:03.66 bitrate=2859.8kbits/s speed=0.187x elapsed=0:00:19.64    \nframe=  226 fps= 11 q=31.0 size=    1280KiB time=00:00:03.76 bitrate=2783.8kbits/s speed=0.187x elapsed=0:00:20.16    \nframe=  233 fps= 11 q=31.0 size=    1280KiB time=00:00:03.88 bitrate=2700.2kbits/s speed=0.188x elapsed=0:00:20.68    \nframe=  240 fps= 11 q=33.0 size=    1280KiB time=00:00:04.00 bitrate=2621.4kbits/s speed=0.189x elapsed=0:00:21.19    \nframe=  246 fps= 11 q=14.0 size=    1280KiB time=00:00:04.10 bitrate=2557.5kbits/s speed=0.189x elapsed=0:00:21.71    \nframe=  251 fps= 11 q=35.0 size=    1280KiB time=00:00:04.18 bitrate=2506.6kbits/s speed=0.188x elapsed=0:00:22.23    \nframe=  257 fps= 11 q=14.0 size=    1280KiB time=00:00:04.28 bitrate=2448.0kbits/s speed=0.188x elapsed=0:00:22.77    \nframe=  264 fps= 11 q=31.0 size=    2560KiB time=00:00:04.40 bitrate=4766.3kbits/s speed=0.189x elapsed=0:00:23.30    \nframe=  271 fps= 11 q=31.0 size=    2560KiB time=00:00:04.51 bitrate=4643.1kbits/s speed=0.189x elapsed=0:00:23.84    \nframe=  276 fps= 11 q=31.0 size=    2560KiB time=00:00:04.60 bitrate=4559.0kbits/s speed=0.189x elapsed=0:00:24.38    \nframe=  276 fps= 11 q=31.0 size=    2560KiB time=00:00:04.60 bitrate=4559.0kbits/s speed=0.185x elapsed=0:00:24.90    \nframe=  276 fps= 11 q=31.0 size=    2560KiB time=00:00:04.60 bitrate=4559.0kbits/s speed=0.181x elapsed=0:00:25.42    \nframe=  276 fps= 11 q=31.0 size=    2560KiB time=00:00:04.60 bitrate=4559.0kbits/s speed=0.177x elapsed=0:00:25.97    \n[out#0/webm @ 000001f151b30840] video:3038KiB audio:0KiB subtitle:0KiB other streams:0KiB global headers:0KiB muxing overhead: 0.091654%\nframe=  300 fps= 11 q=32.0 Lsize=    3040KiB time=00:00:05.00 bitrate=4981.5kbits/s speed=0.19x elapsed=0:00:26.34    \n",
  "seconds": 26.558457851409912,
  "probe_out": {}
}